<?xml version="1.0" encoding="UTF-8" standalone="no"?>
<svg width="312px" height="145px" viewBox="0 0 312 145" version="1.1" xmlns="http://www.w3.org/2000/svg" xmlns:xlink="http://www.w3.org/1999/xlink">
    <!-- Generator: Sketch 3.8.3 (29802) - http://www.bohemiancoding.com/sketch -->
    <title>Group 2</title>
    <desc>Created with Sketch.</desc>
    <defs>
        <rect id="path-1" x="0" y="0" width="312" height="145"></rect>
        <mask id="mask-2" maskContentUnits="userSpaceOnUse" maskUnits="objectBoundingBox" x="0" y="0" width="312" height="145" fill="white">
            <use xlink:href="#path-1"></use>
        </mask>
    </defs>
    <g id="Page-1" stroke="none" stroke-width="1" fill="none" fill-rule="evenodd">
        <g id="S-Round-3" transform="translate(-865.000000, -1647.000000)">
            <g id="Group-2" transform="translate(865.000000, 1647.000000)">
                <path d="M22.756,30.2 C23.6560045,30.0679993 24.4479966,29.7500025 25.132,29.246 L26.734,29.246 L26.734,41 L24.61,41 L24.61,31.784 C23.9979969,32.0840015 23.3800031,32.234 22.756,32.234 L22.756,30.2 Z M30.8695,30.2 C31.7695045,30.0679993 32.5614966,29.7500025 33.2455,29.246 L34.8475,29.246 L34.8475,41 L32.7235,41 L32.7235,31.784 C32.1114969,32.0840015 31.4935031,32.234 30.8695,32.234 L30.8695,30.2 Z M43.915,29.084 C44.6350036,29.084 45.291997,29.2069988 45.886,29.453 C46.480003,29.6990012 46.9869979,30.0739975 47.407,30.578 C48.3190046,31.6460053 48.775,33.17599 48.775,35.168 C48.775,37.16001 48.3190046,38.6899947 47.407,39.758 C46.5669958,40.754005 45.4090074,41.252 43.933,41.252 C42.4449926,41.252 41.2750043,40.754005 40.423,39.758 C39.5229955,38.7139948 39.073,37.1840101 39.073,35.168 C39.073,33.1519899 39.5229955,31.6220052 40.423,30.578 C41.2750043,29.581995 42.4389926,29.084 43.915,29.084 L43.915,29.084 Z M45.886,32.081 C45.4239977,31.3669964 44.7700042,31.01 43.924,31.01 C43.0779958,31.01 42.4240023,31.3669964 41.962,32.081 C41.4999977,32.7950036 41.269,33.8239933 41.269,35.168 C41.269,36.5120067 41.4999977,37.5349965 41.962,38.237 C42.4240023,38.9390035 43.0779958,39.29 43.924,39.29 C44.7700042,39.29 45.4239977,38.9390035 45.886,38.237 C46.3480023,37.5349965 46.579,36.5120067 46.579,35.168 C46.579,33.8239933 46.3480023,32.7950036 45.886,32.081 L45.886,32.081 Z M59.224,29.318 L63.94,29.318 C65.2360065,29.318 66.2379965,29.6239969 66.946,30.236 C67.6180034,30.8000028 67.954,31.5259956 67.954,32.414 C67.954,33.0740033 67.7710018,33.6379977 67.405,34.106 C67.0389982,34.5740023 66.5260033,34.903999 65.866,35.096 C66.5260033,35.2280007 67.0719978,35.5249977 67.504,35.987 C67.9360022,36.4490023 68.152,37.0399964 68.152,37.76 C68.152,39.2000072 67.4380071,40.1839974 66.01,40.712 C65.4699973,40.904001 64.7860041,41 63.958,41 L59.224,41 L59.224,29.318 Z M63.904,39.146 C64.5880034,39.146 65.0829985,39.0080014 65.389,38.732 C65.6950015,38.4559986 65.848,38.0900023 65.848,37.634 C65.848,37.1779977 65.6890016,36.8090014 65.371,36.527 C65.0529984,36.2449986 64.5640033,36.104 63.904,36.104 L61.348,36.104 L61.348,39.146 L63.904,39.146 Z M61.348,34.25 L63.85,34.25 C64.4860032,34.25 64.9659984,34.1120014 65.29,33.836 C65.6140016,33.5599986 65.776,33.1850024 65.776,32.711 C65.776,32.2369976 65.6170016,31.8590014 65.299,31.577 C64.9809984,31.2949986 64.5040032,31.154 63.868,31.154 L61.348,31.154 L61.348,34.25 Z M76.0135,32.018 C76.6015029,32.018 77.1534974,32.1109991 77.6695,32.297 C78.1855026,32.4830009 78.6294981,32.7679981 79.0015,33.152 C79.8295041,33.9920042 80.2435,35.1559926 80.2435,36.644 C80.2435,38.1080073 79.8295041,39.2599958 79.0015,40.1 C78.2574963,40.8680038 77.2615062,41.252 76.0135,41.252 C74.7654938,41.252 73.7575038,40.8680038 72.9895,40.1 C72.1614959,39.2719959 71.7475,38.1200074 71.7475,36.644 C71.7475,35.1439925 72.1614959,33.9800041 72.9895,33.152 C73.7455038,32.3959962 74.7534937,32.018 76.0135,32.018 L76.0135,32.018 Z M77.5795,34.547 C77.2194982,34.0849977 76.7185032,33.854 76.0765,33.854 C75.4344968,33.854 74.909502,34.0849977 74.5015,34.547 C74.093498,35.0090023 73.8895,35.7019954 73.8895,36.626 C73.8895,37.5500046 74.0724982,38.2429977 74.4385,38.705 C74.8045018,39.1670023 75.3054968,39.398 75.9415,39.398 C76.5775032,39.398 77.099498,39.1670023 77.5075,38.705 C77.915502,38.2429977 78.1195,37.5500046 78.1195,36.626 C78.1195,35.7019954 77.9395018,35.0090023 77.5795,34.547 L77.5795,34.547 Z M85.225,32.252 L86.989,38.498 L88.663,32.738 L90.589,32.738 L92.263,38.516 L94.045,32.252 L96.169,32.252 L93.289,41 L91.201,41 L89.581,35.762 L87.997,41 L85.891,41 L82.993,32.252 L85.225,32.252 Z M106.5595,34.628 C106.709501,35.1320025 106.7845,35.5939979 106.7845,36.014 C106.7845,36.4340021 106.7605,36.8119983 106.7125,37.148 L101.0605,37.148 C101.0845,37.8560035 101.258498,38.4319978 101.5825,38.876 C101.906502,39.3200022 102.398497,39.542 103.0585,39.542 C103.934504,39.542 104.456499,39.1580038 104.6245,38.39 L106.7665,38.39 C106.622499,39.2660044 106.220503,39.9559975 105.5605,40.46 C104.876497,40.9880026 104.042505,41.252 103.0585,41.252 C101.906494,41.252 100.940504,40.8320042 100.1605,39.992 C99.356496,39.1159956 98.9545,37.9940068 98.9545,36.626 C98.9545,35.221993 99.356496,34.0940043 100.1605,33.242 C100.928504,32.4259959 101.894494,32.018 103.0585,32.018 C104.270506,32.018 105.212497,32.4439957 105.8845,33.296 C106.184501,33.6800019 106.409499,34.1239975 106.5595,34.628 L106.5595,34.628 Z M103.0765,33.71 C102.476497,33.71 102.008502,33.904998 101.6725,34.295 C101.336498,34.685002 101.1385,35.1859969 101.0785,35.798 L104.8045,35.798 C104.8045,34.8499953 104.504503,34.2140016 103.9045,33.89 C103.676499,33.7699994 103.400502,33.71 103.0765,33.71 L103.0765,33.71 Z M113.134,33.98 C113.662003,32.7199937 114.453995,32.09 115.51,32.09 C115.714001,32.09 115.971998,32.1319996 116.284,32.216 L116.248,34.34 C115.911998,34.2679996 115.582002,34.232 115.258,34.232 C113.841993,34.232 113.134,35.2099902 113.134,37.166 L113.134,41 L111.01,41 L111.01,32.234 L113.134,32.234 L113.134,33.98 Z M121.2655,32.252 L123.3715,38.552 L125.2075,32.252 L127.3675,32.252 L124.0195,42.584 C123.671498,43.6280052 123.248502,44.3779977 122.7505,44.834 C122.252498,45.2900023 121.619504,45.518 120.8515,45.518 C120.071496,45.518 119.291504,45.3260019 118.5115,44.942 L118.5115,43.07 C119.135503,43.466002 119.765497,43.664 120.4015,43.664 C120.821502,43.664 121.166499,43.4960017 121.4365,43.16 C121.706501,42.8239983 121.925499,42.3860027 122.0935,41.846 L122.3635,41 L118.8535,32.252 L121.2655,32.252 Z M22.72,58.252 L24.016,58.252 L24.016,57.226 C24.016,56.3259955 24.2799974,55.6360024 24.808,55.156 C25.2880024,54.7239978 25.9119962,54.508 26.68,54.508 C27.1720025,54.508 27.7779964,54.5799993 28.498,54.724 L28.084,56.362 C27.7479983,56.2419994 27.4450013,56.182 27.175,56.182 C26.9049986,56.182 26.668001,56.2569993 26.464,56.407 C26.259999,56.5570008 26.158,56.835998 26.158,57.244 L26.158,58.252 L27.76,58.252 L27.76,59.674 L26.158,59.674 L26.158,67 L24.016,67 L24.016,59.674 L22.72,59.674 L22.72,58.252 Z M31.9495,54.652 L34.0735,54.652 L34.0735,67 L31.9495,67 L31.9495,54.652 Z M42.547,58.018 C43.1350029,58.018 43.6869974,58.1109991 44.203,58.297 C44.7190026,58.4830009 45.1629981,58.7679981 45.535,59.152 C46.3630041,59.9920042 46.777,61.1559926 46.777,62.644 C46.777,64.1080073 46.3630041,65.2599958 45.535,66.1 C44.7909963,66.8680038 43.7950062,67.252 42.547,67.252 C41.2989938,67.252 40.2910038,66.8680038 39.523,66.1 C38.6949959,65.2719959 38.281,64.1200074 38.281,62.644 C38.281,61.1439925 38.6949959,59.9800041 39.523,59.152 C40.2790038,58.3959962 41.2869937,58.018 42.547,58.018 L42.547,58.018 Z M44.113,60.547 C43.7529982,60.0849977 43.2520032,59.854 42.61,59.854 C41.9679968,59.854 41.443002,60.0849977 41.035,60.547 C40.626998,61.0090023 40.423,61.7019954 40.423,62.626 C40.423,63.5500046 40.6059982,64.2429977 40.972,64.705 C41.3380018,65.1670023 41.8389968,65.398 42.475,65.398 C43.1110032,65.398 43.632998,65.1670023 44.041,64.705 C44.449002,64.2429977 44.653,63.5500046 44.653,62.626 C44.653,61.7019954 44.4730018,61.0090023 44.113,60.547 L44.113,60.547 Z M54.4225,58.018 C55.0105029,58.018 55.5624974,58.1109991 56.0785,58.297 C56.5945026,58.4830009 57.0384981,58.7679981 57.4105,59.152 C58.2385041,59.9920042 58.6525,61.1559926 58.6525,62.644 C58.6525,64.1080073 58.2385041,65.2599958 57.4105,66.1 C56.6664963,66.8680038 55.6705062,67.252 54.4225,67.252 C53.1744938,67.252 52.1665038,66.8680038 51.3985,66.1 C50.5704959,65.2719959 50.1565,64.1200074 50.1565,62.644 C50.1565,61.1439925 50.5704959,59.9800041 51.3985,59.152 C52.1545038,58.3959962 53.1624937,58.018 54.4225,58.018 L54.4225,58.018 Z M55.9885,60.547 C55.6284982,60.0849977 55.1275032,59.854 54.4855,59.854 C53.8434968,59.854 53.318502,60.0849977 52.9105,60.547 C52.502498,61.0090023 52.2985,61.7019954 52.2985,62.626 C52.2985,63.5500046 52.4814982,64.2429977 52.8475,64.705 C53.2135018,65.1670023 53.7144968,65.398 54.3505,65.398 C54.9865032,65.398 55.508498,65.1670023 55.9165,64.705 C56.324502,64.2429977 56.5285,63.5500046 56.5285,62.626 C56.5285,61.7019954 56.3485018,61.0090023 55.9885,60.547 L55.9885,60.547 Z M64.984,59.98 C65.5120026,58.7199937 66.3039947,58.09 67.36,58.09 C67.564001,58.09 67.8219984,58.1319996 68.134,58.216 L68.098,60.34 C67.7619983,60.2679996 67.4320016,60.232 67.108,60.232 C65.6919929,60.232 64.984,61.2099902 64.984,63.166 L64.984,67 L62.86,67 L62.86,58.234 L64.984,58.234 L64.984,59.98 Z M85.027,55.192 L85.027,62.59 L87.061,62.59 L87.061,64.408 L85.027,64.408 L85.027,67 L82.921,67 L82.921,64.408 L76.999,64.408 L76.999,62.806 L82.975,55.192 L85.027,55.192 Z M79.519,62.806 L83.029,62.806 L83.029,58.342 L79.519,62.806 Z M25.96,81.318 L31.108,89.598 L31.108,81.318 L33.232,81.318 L33.232,93 L31.072,93 L25.762,84.432 L25.762,93 L23.638,93 L23.638,81.318 L25.96,81.318 Z M45.0445,86.628 C45.1945007,87.1320025 45.2695,87.5939979 45.2695,88.014 C45.2695,88.4340021 45.2455002,88.8119983 45.1975,89.148 L39.5455,89.148 C39.5695001,89.8560035 39.7434984,90.4319978 40.0675,90.876 C40.3915016,91.3200022 40.8834967,91.542 41.5435,91.542 C42.4195044,91.542 42.9414992,91.1580038 43.1095,90.39 L45.2515,90.39 C45.1074993,91.2660044 44.7055033,91.9559975 44.0455,92.46 C43.3614966,92.9880026 42.5275049,93.252 41.5435,93.252 C40.3914942,93.252 39.4255039,92.8320042 38.6455,91.992 C37.841496,91.1159956 37.4395,89.9940068 37.4395,88.626 C37.4395,87.221993 37.841496,86.0940043 38.6455,85.242 C39.4135038,84.4259959 40.3794942,84.018 41.5435,84.018 C42.7555061,84.018 43.6974966,84.4439957 44.3695,85.296 C44.6695015,85.6800019 44.8944992,86.1239975 45.0445,86.628 L45.0445,86.628 Z M41.5615,85.71 C40.961497,85.71 40.4935017,85.904998 40.1575,86.295 C39.8214983,86.685002 39.6235003,87.1859969 39.5635,87.798 L43.2895,87.798 C43.2895,86.8499953 42.989503,86.2140016 42.3895,85.89 C42.1614989,85.7699994 41.8855016,85.71 41.5615,85.71 L41.5615,85.71 Z M50.269,84.252 L52.033,90.498 L53.707,84.738 L55.633,84.738 L57.307,90.516 L59.089,84.252 L61.213,84.252 L58.333,93 L56.245,93 L54.625,87.762 L53.041,93 L50.935,93 L48.037,84.252 L50.269,84.252 Z M72.202,81.318 L74.776,85.98 L77.476,81.318 L79.978,81.318 L75.82,88.176 L75.82,93 L73.696,93 L73.696,88.176 L69.682,81.318 L72.202,81.318 Z M85.6075,84.018 C86.1955029,84.018 86.7474974,84.1109991 87.2635,84.297 C87.7795026,84.4830009 88.2234981,84.7679981 88.5955,85.152 C89.4235041,85.9920042 89.8375,87.1559926 89.8375,88.644 C89.8375,90.1080073 89.4235041,91.2599958 88.5955,92.1 C87.8514963,92.8680038 86.8555062,93.252 85.6075,93.252 C84.3594938,93.252 83.3515038,92.8680038 82.5835,92.1 C81.7554959,91.2719959 81.3415,90.1200074 81.3415,88.644 C81.3415,87.1439925 81.7554959,85.9800041 82.5835,85.152 C83.3395038,84.3959962 84.3474937,84.018 85.6075,84.018 L85.6075,84.018 Z M87.1735,86.547 C86.8134982,86.0849977 86.3125032,85.854 85.6705,85.854 C85.0284968,85.854 84.503502,86.0849977 84.0955,86.547 C83.687498,87.0090023 83.4835,87.7019954 83.4835,88.626 C83.4835,89.5500046 83.6664982,90.2429977 84.0325,90.705 C84.3985018,91.1670023 84.8994968,91.398 85.5355,91.398 C86.1715032,91.398 86.693498,91.1670023 87.1015,90.705 C87.509502,90.2429977 87.7135,89.5500046 87.7135,88.626 C87.7135,87.7019954 87.5335018,87.0090023 87.1735,86.547 L87.1735,86.547 Z M96.169,85.98 C96.6970026,84.7199937 97.4889947,84.09 98.545,84.09 C98.749001,84.09 99.0069984,84.1319996 99.319,84.216 L99.283,86.34 C98.9469983,86.2679996 98.6170016,86.232 98.293,86.232 C96.8769929,86.232 96.169,87.2099902 96.169,89.166 L96.169,93 L94.045,93 L94.045,84.234 L96.169,84.234 L96.169,85.98 Z M106.3165,88.734 L105.3445,89.544 L105.3445,93 L103.2205,93 L103.2205,80.652 L105.3445,80.652 L105.3445,87.33 L108.8005,84.252 L111.6805,84.252 L107.8105,87.492 L111.8965,93 L109.3045,93 L106.3165,88.734 Z M114.817,92.685 C114.582999,92.474999 114.466,92.1930018 114.466,91.839 C114.466,91.4849982 114.603999,91.1820013 114.88,90.93 C115.156001,90.6779987 115.533998,90.552 116.014,90.552 C116.494002,90.552 116.883998,90.7379981 117.184,91.11 C117.484001,91.4820019 117.634,91.9379973 117.634,92.478 C117.634,93.3540044 117.238004,94.1519964 116.446,94.872 C116.193999,95.1000011 115.912002,95.2919992 115.6,95.448 L114.016,94.656 C114.412002,94.451999 114.762998,94.2240013 115.069,93.972 C115.375002,93.7199987 115.576,93.4260017 115.672,93.09 C115.335998,93.0299997 115.051001,92.8950011 114.817,92.685 L114.817,92.685 Z M130.027,81.318 L135.175,89.598 L135.175,81.318 L137.299,81.318 L137.299,93 L135.139,93 L129.829,84.432 L129.829,93 L127.705,93 L127.705,81.318 L130.027,81.318 Z M143.4685,81.318 L146.0425,85.98 L148.7425,81.318 L151.2445,81.318 L147.0865,88.176 L147.0865,93 L144.9625,93 L144.9625,88.176 L140.9485,81.318 L143.4685,81.318 Z M22.756,108.2 C23.6560045,108.067999 24.4479966,107.750003 25.132,107.246 L26.734,107.246 L26.734,119 L24.61,119 L24.61,109.784 C23.9979969,110.084001 23.3800031,110.234 22.756,110.234 L22.756,108.2 Z M35.8015,107.084 C36.5215036,107.084 37.178497,107.206999 37.7725,107.453 C38.366503,107.699001 38.8734979,108.073997 39.2935,108.578 C40.2055046,109.646005 40.6615,111.17599 40.6615,113.168 C40.6615,115.16001 40.2055046,116.689995 39.2935,117.758 C38.4534958,118.754005 37.2955074,119.252 35.8195,119.252 C34.3314926,119.252 33.1615043,118.754005 32.3095,117.758 C31.4094955,116.713995 30.9595,115.18401 30.9595,113.168 C30.9595,111.15199 31.4094955,109.622005 32.3095,108.578 C33.1615043,107.581995 34.3254926,107.084 35.8015,107.084 L35.8015,107.084 Z M37.7725,110.081 C37.3104977,109.366996 36.6565042,109.01 35.8105,109.01 C34.9644958,109.01 34.3105023,109.366996 33.8485,110.081 C33.3864977,110.795004 33.1555,111.823993 33.1555,113.168 C33.1555,114.512007 33.3864977,115.534996 33.8485,116.237 C34.3105023,116.939004 34.9644958,117.29 35.8105,117.29 C36.6565042,117.29 37.3104977,116.939004 37.7725,116.237 C38.2345023,115.534996 38.4655,114.512007 38.4655,113.168 C38.4655,111.823993 38.2345023,110.795004 37.7725,110.081 L37.7725,110.081 Z M48.883,107.084 C49.6030036,107.084 50.259997,107.206999 50.854,107.453 C51.448003,107.699001 51.9549979,108.073997 52.375,108.578 C53.2870046,109.646005 53.743,111.17599 53.743,113.168 C53.743,115.16001 53.2870046,116.689995 52.375,117.758 C51.5349958,118.754005 50.3770074,119.252 48.901,119.252 C47.4129926,119.252 46.2430043,118.754005 45.391,117.758 C44.4909955,116.713995 44.041,115.18401 44.041,113.168 C44.041,111.15199 44.4909955,109.622005 45.391,108.578 C46.2430043,107.581995 47.4069926,107.084 48.883,107.084 L48.883,107.084 Z M50.854,110.081 C50.3919977,109.366996 49.7380042,109.01 48.892,109.01 C48.0459958,109.01 47.3920023,109.366996 46.93,110.081 C46.4679977,110.795004 46.237,111.823993 46.237,113.168 C46.237,114.512007 46.4679977,115.534996 46.93,116.237 C47.3920023,116.939004 48.0459958,117.29 48.892,117.29 C49.7380042,117.29 50.3919977,116.939004 50.854,116.237 C51.3160023,115.534996 51.547,114.512007 51.547,113.168 C51.547,111.823993 51.3160023,110.795004 50.854,110.081 L50.854,110.081 Z M61.9645,107.084 C62.6845036,107.084 63.341497,107.206999 63.9355,107.453 C64.529503,107.699001 65.0364979,108.073997 65.4565,108.578 C66.3685046,109.646005 66.8245,111.17599 66.8245,113.168 C66.8245,115.16001 66.3685046,116.689995 65.4565,117.758 C64.6164958,118.754005 63.4585074,119.252 61.9825,119.252 C60.4944926,119.252 59.3245043,118.754005 58.4725,117.758 C57.5724955,116.713995 57.1225,115.18401 57.1225,113.168 C57.1225,111.15199 57.5724955,109.622005 58.4725,108.578 C59.3245043,107.581995 60.4884926,107.084 61.9645,107.084 L61.9645,107.084 Z M63.9355,110.081 C63.4734977,109.366996 62.8195042,109.01 61.9735,109.01 C61.1274958,109.01 60.4735023,109.366996 60.0115,110.081 C59.5494977,110.795004 59.3185,111.823993 59.3185,113.168 C59.3185,114.512007 59.5494977,115.534996 60.0115,116.237 C60.4735023,116.939004 61.1274958,117.29 61.9735,117.29 C62.8195042,117.29 63.4734977,116.939004 63.9355,116.237 C64.3975023,115.534996 64.6285,114.512007 64.6285,113.168 C64.6285,111.823993 64.3975023,110.795004 63.9355,110.081 L63.9355,110.081 Z M74.92,109.01 C73.6119935,109.01 72.8500011,109.507995 72.634,110.504 L70.402,110.504 C70.5220006,109.351994 70.9899959,108.482003 71.806,107.894 C72.5740038,107.353997 73.5819938,107.084 74.83,107.084 C76.1140064,107.084 77.157996,107.383997 77.962,107.984 C78.8020042,108.596003 79.222,109.381995 79.222,110.342 C79.222,110.942003 79.0600016,111.460998 78.736,111.899 C78.4119984,112.337002 77.9320032,112.663999 77.296,112.88 C78.0040035,113.120001 78.5709979,113.476998 78.997,113.951 C79.4230021,114.425002 79.636,114.967997 79.636,115.58 C79.636,116.192003 79.5250011,116.713998 79.303,117.146 C79.0809989,117.578002 78.766002,117.949998 78.358,118.262 C77.4939957,118.922003 76.3720069,119.252 74.992,119.252 C73.6719934,119.252 72.5620045,118.916003 71.662,118.244 C70.653995,117.511996 70.15,116.540006 70.15,115.328 L72.418,115.328 C72.4540002,115.940003 72.7029977,116.419998 73.165,116.768 C73.6270023,117.116002 74.2299963,117.29 74.974,117.29 C75.7180037,117.29 76.2969979,117.125002 76.711,116.795 C77.1250021,116.464998 77.332,116.045003 77.332,115.535 C77.332,115.024997 77.1430019,114.626001 76.765,114.338 C76.3869981,114.049999 75.7900041,113.906 74.974,113.906 L73.426,113.906 L73.426,112.232 L74.758,112.232 C75.4420034,112.232 75.9759981,112.085001 76.36,111.791 C76.7440019,111.496999 76.936,111.110002 76.936,110.63 C76.936,110.149998 76.7710016,109.760002 76.441,109.46 C76.1109983,109.159999 75.6040034,109.01 74.92,109.01 L74.92,109.01 Z" id="110-Bowery" fill="#FFFFFF"></path>
                <use id="Rectangle-30" stroke="#FFFFFF" mask="url(#mask-2)" stroke-width="4" xlink:href="#path-1"></use>
            </g>
        </g>
    </g>
</svg>