<?xml version="1.0" encoding="UTF-8" standalone="no"?>
<svg width="50px" height="42px" viewBox="0 0 50 42" version="1.1" xmlns="http://www.w3.org/2000/svg" xmlns:xlink="http://www.w3.org/1999/xlink">
    <!-- Generator: Sketch 3.8.3 (29802) - http://www.bohemiancoding.com/sketch -->
    <title>twitter-logo-silhouette</title>
    <desc>Created with Sketch.</desc>
    <defs></defs>
    <g id="Page-1" stroke="none" stroke-width="1" fill="none" fill-rule="evenodd">
        <g id="S-Round-3" transform="translate(-544.000000, -2776.000000)" fill="#FFFFFF">
            <path d="M588.109835,2782.49667 C590.230763,2781.21313 591.847824,2779.17922 592.625107,2776.75432 C590.640887,2777.94308 588.445746,2778.80798 586.094368,2779.27006 C584.235138,2777.26379 581.563472,2776 578.618389,2776 C572.958675,2776 568.365284,2780.64443 568.365284,2786.36703 C568.365284,2787.18454 568.459027,2787.97046 568.626982,2788.72874 C560.096399,2788.29431 552.546207,2784.17514 547.480197,2777.89569 C546.593547,2779.42408 546.08968,2781.21313 546.08968,2783.11277 C546.08968,2786.70667 547.905945,2789.88589 550.651824,2791.73419 C548.972268,2791.69074 547.402078,2791.21287 546.015468,2790.4388 L546.015468,2790.56518 C546.015468,2795.5927 549.554254,2799.7869 554.237481,2800.74659 C553.38208,2800.97565 552.468088,2801.09808 551.538474,2801.09808 C550.882275,2801.09808 550.2417,2801.03884 549.601125,2800.91641 C550.913522,2805.03558 554.694477,2808.02523 559.182408,2808.12002 C555.670963,2810.89641 551.245528,2812.54723 546.441216,2812.54723 C545.617061,2812.54723 544.808531,2812.49984 544,2812.409 C548.54652,2815.35522 553.932818,2817.06528 559.72924,2817.06528 C578.587142,2817.06528 588.902742,2801.2679 588.902742,2787.57158 L588.871494,2786.2288 C590.886962,2784.76359 592.625107,2782.94295 594,2780.85769 C592.168112,2781.67916 590.183892,2782.24786 588.109835,2782.49667 Z" id="twitter-logo-silhouette"></path>
        </g>
    </g>
</svg>