<?xml version="1.0" encoding="UTF-8" standalone="no"?>
<svg width="96px" height="56px" viewBox="0 0 96 56" version="1.1" xmlns="http://www.w3.org/2000/svg" xmlns:xlink="http://www.w3.org/1999/xlink" xmlns:sketch="http://www.bohemiancoding.com/sketch/ns">
    <!-- Generator: Sketch 3.3.3 (12072) - http://www.bohemiancoding.com/sketch -->
    <title>battery copy</title>
    <desc>Created with Sketch.</desc>
    <defs></defs>
    <g id="Page-1" stroke="none" stroke-width="1" fill="none" fill-rule="evenodd" sketch:type="MSPage">
        <g id="battery-copy" sketch:type="MSLayerGroup" fill="#FFFFFF">
            <path d="M84,12 C84,5.37 78.63,0 72,0 L12,0 C5.37,0 0,5.37 0,12 L0,44 C0,50.63 5.37,56 12,56 L72,56 C78.63,56 84,50.63 84,44 C90.63,44 96,38.63 96,32 L96,24 C96,17.37 90.63,12 84,12 L84,12 Z M76,44 C76,46.21 74.21,48 72,48 L12,48 C9.79,48 8,46.21 8,44 L8,12 C8,9.79 9.79,8 12,8 L72,8 C74.21,8 76,9.79 76,12 L76,44 L76,44 Z M88,32 C88,34.21 86.21,36 84,36 L84,20 C86.21,20 88,21.79 88,24 L88,32 L88,32 Z" id="Shape" sketch:type="MSShapeGroup"></path>
        </g>
    </g>
</svg>