<?xml version="1.0" encoding="UTF-8" standalone="no"?>
<svg width="88px" height="88px" viewBox="0 0 88 88" version="1.1" xmlns="http://www.w3.org/2000/svg" xmlns:xlink="http://www.w3.org/1999/xlink" xmlns:sketch="http://www.bohemiancoding.com/sketch/ns">
    <!-- Generator: Sketch 3.3.3 (12072) - http://www.bohemiancoding.com/sketch -->
    <title>Shape</title>
    <desc>Created with Sketch.</desc>
    <defs></defs>
    <g id="Page-1" stroke="none" stroke-width="1" fill="none" fill-rule="evenodd" sketch:type="MSPage">
        <g id="speech-bubble" sketch:type="MSLayerGroup" fill="#FFFFFF">
            <path d="M76,8 C78.206,8 80,9.794 80,12 L80,56 C80,58.205 78.206,59.999 76,59.999 L41.437,59.999 L24,72.454 L24,68 L24,59.999 L12,59.999 C9.793,59.999 8,58.205 8,56 L8,12 C8,9.793 9.794,8 12,8 L76,8 L76,8 Z M76,0 L12,0 C5.373,0 0,5.373 0,12 L0,56 C0,62.627 5.373,68 12,68 L16,68 L16,88 L44,68 L76,68 C82.627,68 88,62.627 88,56 L88,12 C88,5.373 82.627,0 76,0 L76,0 L76,0 Z" id="Shape" sketch:type="MSShapeGroup"></path>
        </g>
    </g>
</svg>