<?xml version="1.0" encoding="UTF-8" standalone="no"?>
<svg width="96px" height="72px" viewBox="0 0 96 72" version="1.1" xmlns="http://www.w3.org/2000/svg" xmlns:xlink="http://www.w3.org/1999/xlink" xmlns:sketch="http://www.bohemiancoding.com/sketch/ns">
    <!-- Generator: Sketch 3.3.3 (12072) - http://www.bohemiancoding.com/sketch -->
    <title>eye copy 2</title>
    <desc>Created with Sketch.</desc>
    <defs></defs>
    <g id="Page-1" stroke="none" stroke-width="1" fill="none" fill-rule="evenodd" sketch:type="MSPage">
        <g id="eye-copy-2" sketch:type="MSLayerGroup">
            <g id="Group" sketch:type="MSShapeGroup">
                <path d="M48,0 C16,0 0,36.166 0,36.166 C0,36.166 16,72 48,72 C80,72 96,36 96,36 C96,36 80,0 48,0 L48,0 Z M48,64 C26.854,64 13.503,44.118 9.003,36.148 C13.5,28.102 26.854,8 48,8 C69.15,8 82.502,27.998 86.998,36 C82.494,44.016 69.145,64 48,64 L48,64 Z M48,20 C39.164,20 32,27.164 32,36 C32,44.837 39.164,52 48,52 C56.837,52 64,44.837 64,36 C64,27.164 56.837,20 48,20 L48,20 Z M48,44 C43.589,44 40,40.411 40,36 C40,31.589 43.589,28 48,28 C52.411,28 56,31.589 56,36 C56,40.411 52.411,44 48,44 L48,44 Z" id="Shape"></path>
                <path d="M48,0 C16,0 0,36.166 0,36.166 C0,36.166 16,72 48,72 C80,72 96,36 96,36 C96,36 80,0 48,0 L48,0 Z M48,64 C26.854,64 13.503,44.118 9.003,36.148 C13.5,28.102 26.854,8 48,8 C69.15,8 82.502,27.998 86.998,36 C82.494,44.016 69.145,64 48,64 L48,64 Z M48,20 C39.164,20 32,27.164 32,36 C32,44.837 39.164,52 48,52 C56.837,52 64,44.837 64,36 C64,27.164 56.837,20 48,20 L48,20 Z M48,44 C43.589,44 40,40.411 40,36 C40,31.589 43.589,28 48,28 C52.411,28 56,31.589 56,36 C56,40.411 52.411,44 48,44 L48,44 Z" id="Shape" fill="#FFFFFF"></path>
            </g>
        </g>
    </g>
</svg>