<?xml version="1.0" encoding="UTF-8" standalone="no"?>
<svg width="94px" height="81px" viewBox="0 0 94 81" version="1.1" xmlns="http://www.w3.org/2000/svg" xmlns:xlink="http://www.w3.org/1999/xlink" xmlns:sketch="http://www.bohemiancoding.com/sketch/ns">
    <!-- Generator: Sketch 3.3.3 (12072) - http://www.bohemiancoding.com/sketch -->
    <title>heart</title>
    <desc>Created with Sketch.</desc>
    <defs></defs>
    <g id="Page-1" stroke="none" stroke-width="1" fill="none" fill-rule="evenodd" sketch:type="MSPage">
        <g id="heart" sketch:type="MSLayerGroup" fill="#FFFFFF">
            <path d="M86.598,7.463 C77.225,-1.91 62.03,-1.91 52.659,7.463 L47,13.12 L41.342,7.465 C31.969,-1.908 16.774,-1.908 7.403,7.465 C-1.97,16.837 -1.97,32.032 7.403,41.405 L13.059,47.059 L47,81 L80.941,47.059 L86.597,41.405 C95.971,32.032 95.971,16.836 86.598,7.463 L86.598,7.463 Z M69.627,47.061 L47,69.688 L24.373,47.061 L13.061,35.749 C6.813,29.501 6.813,19.37 13.061,13.12 C19.311,6.872 29.44,6.872 35.688,13.12 L47,24.434 L58.314,13.12 C64.562,6.872 74.693,6.872 80.941,13.12 C87.189,19.37 87.189,29.499 80.941,35.749 L69.627,47.061 L69.627,47.061 Z" id="Shape" sketch:type="MSShapeGroup"></path>
        </g>
    </g>
</svg>