<?xml version="1.0" encoding="UTF-8" standalone="no"?>
<svg width="96px" height="88px" viewBox="0 0 96 88" version="1.1" xmlns="http://www.w3.org/2000/svg" xmlns:xlink="http://www.w3.org/1999/xlink" xmlns:sketch="http://www.bohemiancoding.com/sketch/ns">
    <!-- Generator: Sketch 3.3.3 (12072) - http://www.bohemiancoding.com/sketch -->
    <title>umbrella</title>
    <desc>Created with Sketch.</desc>
    <defs></defs>
    <g id="Page-1" stroke="none" stroke-width="1" fill="none" fill-rule="evenodd" sketch:type="MSPage">
        <g id="umbrella" sketch:type="MSLayerGroup" fill="#FFFFFF">
            <path d="M72,68 C69.791,68 68,69.791 68,72 C68,76.418 64.418,80 60,80 C55.582,80 52,76.418 52,72 L52,48 L96,48 C96,45.274 95.772,42.602 95.336,40 C91.527,17.298 71.784,0 48,0 C24.216,0 4.472,17.298 0.664,40 C0.227,42.602 0,45.274 0,48 L44,48 L44,72 C44,80.837 51.163,88 60,88 C68.837,88 76,80.837 76,72 C76,69.791 74.209,68 72,68 L72,68 Z M48,8 C67.352,8 83.494,21.742 87.199,40 L8.8,40 C12.506,21.742 28.648,8 48,8 L48,8 Z" id="Shape" sketch:type="MSShapeGroup"></path>
        </g>
    </g>
</svg>