<?xml version="1.0" encoding="UTF-8" standalone="no"?>
<svg width="88px" height="88px" viewBox="0 0 88 88" version="1.1" xmlns="http://www.w3.org/2000/svg" xmlns:xlink="http://www.w3.org/1999/xlink" xmlns:sketch="http://www.bohemiancoding.com/sketch/ns">
    <!-- Generator: Sketch 3.3.3 (12072) - http://www.bohemiancoding.com/sketch -->
    <title>server copy</title>
    <desc>Created with Sketch.</desc>
    <defs></defs>
    <g id="Page-1" stroke="none" stroke-width="1" fill="none" fill-rule="evenodd" sketch:type="MSPage">
        <g id="server-copy" sketch:type="MSLayerGroup" fill="#FFFFFF">
            <path d="M44,0 C22.809,0 0,5.007 0,16 L0,72 C0,82.993 22.809,88 44,88 C65.191,88 88,82.993 88,72 L88,16 C88,5.007 65.191,0 44,0 L44,0 Z M44,8 C67.189,8 79.18,13.736 79.986,16 C79.18,18.264 67.189,24 44,24 C20.811,24 8.82,18.264 8.013,16 C8.82,13.736 20.811,8 44,8 L44,8 Z M8,25.723 C16.513,29.989 30.577,32 44,32 C57.424,32 71.488,29.987 80.001,25.721 L80.003,43.95 C79.369,46.173 67.374,52.001 44,52.001 C20.6,52.001 8.604,46.16 8,44.001 L8,25.723 L8,25.723 Z M44,80 C20.6,80 8.604,74.159 8,72 L8,53.723 C16.513,57.989 30.577,60 44,60 C57.426,60 71.492,57.987 80.004,53.719 L80.006,71.942 C79.396,74.159 67.4,80 44,80 L44,80 Z" id="Shape" sketch:type="MSShapeGroup"></path>
        </g>
    </g>
</svg>