<?xml version="1.0" encoding="UTF-8" standalone="no"?>
<svg width="40px" height="40px" viewBox="0 0 40 40" version="1.1" xmlns="http://www.w3.org/2000/svg" xmlns:xlink="http://www.w3.org/1999/xlink">
    <!-- Generator: Sketch 3.8.3 (29802) - http://www.bohemiancoding.com/sketch -->
    <title>instagram-social-network-logo-of-photo-camera</title>
    <desc>Created with Sketch.</desc>
    <defs></defs>
    <g id="Page-1" stroke="none" stroke-width="1" fill="none" fill-rule="evenodd">
        <g id="S-Round-3" transform="translate(-772.000000, -2778.000000)" fill="#FFFFFF">
            <path d="M777.133866,2778 L806.866134,2778 C809.689761,2778 812,2780.06303 812,2783.06888 L812,2812.42479 C812,2815.43064 809.689761,2817.49367 806.866134,2817.49367 L777.133866,2817.49367 C774.310239,2817.49367 772,2815.43064 772,2812.42479 L772,2783.06888 C772,2780.06303 774.310239,2778 777.133866,2778 L777.133866,2778 Z M801.138794,2782.38762 C800.147958,2782.38762 799.337834,2783.18749 799.337834,2784.16579 L799.337834,2788.42263 C799.337834,2789.40092 800.147958,2790.20079 801.138794,2790.20079 L805.660703,2790.20079 C806.649485,2790.20079 807.459609,2789.40092 807.459609,2788.42263 L807.459609,2784.16579 C807.459609,2783.18749 806.649485,2782.38762 805.660703,2782.38762 L801.138794,2782.38762 Z M807.479631,2794.70145 L803.958313,2794.70145 C804.290987,2795.77453 804.4717,2796.913 804.4717,2798.08949 C804.4717,2804.65927 798.904536,2809.98514 792.037991,2809.98514 C785.171445,2809.98514 779.604282,2804.65927 779.604282,2798.08949 C779.604282,2796.913 779.784994,2795.77453 780.117668,2794.70145 L776.445928,2794.70145 L776.445928,2811.38516 C776.445928,2812.24839 777.160048,2812.9555 778.036399,2812.9555 L805.889673,2812.9555 C806.766024,2812.9555 807.479631,2812.24839 807.479631,2811.38516 L807.479631,2794.70145 Z M792.037991,2789.97523 C787.602331,2789.97523 784.004518,2793.41649 784.004518,2797.66168 C784.004518,2801.90687 787.602331,2805.34813 792.037991,2805.34813 C796.474164,2805.34813 800.071977,2801.90687 800.071977,2797.66168 C800.071977,2793.41649 796.476217,2789.97523 792.037991,2789.97523 L792.037991,2789.97523 Z" id="instagram-social-network-logo-of-photo-camera"></path>
        </g>
    </g>
</svg>