<?xml version="1.0" encoding="UTF-8" standalone="no"?>
<svg width="574px" height="277px" viewBox="0 0 574 277" version="1.1" xmlns="http://www.w3.org/2000/svg" xmlns:xlink="http://www.w3.org/1999/xlink">
    <!-- Generator: Sketch 3.8.3 (29802) - http://www.bohemiancoding.com/sketch -->
    <title>Group</title>
    <desc>Created with Sketch.</desc>
    <defs></defs>
    <g id="Page-1" stroke="none" stroke-width="1" fill="none" fill-rule="evenodd">
        <g id="S-Round-3" transform="translate(-268.000000, -808.000000)">
            <g id="Group" transform="translate(268.000000, 809.000000)">
                <path d="M-29.1364952,172.837537 C-29.6607096,174.322812 -30.6779199,175.065437 -32.1881565,175.065437 C-33.6983932,175.065437 -34.9371431,174.516269 -35.9044435,173.417915 C-36.8717438,172.319561 -37.3553867,170.84055 -37.3553867,168.980837 C-37.3553867,167.121124 -36.8280599,165.642112 -35.7733905,164.543759 C-34.7187211,163.445405 -33.4050845,162.896236 -31.8324414,162.896236 C-30.9088256,162.896236 -30.1006739,163.083452 -29.407962,163.457891 C-28.7152502,163.83233 -28.1192773,164.431423 -27.6200255,165.255189 L-29.042886,165.741957 C-29.8541701,164.730972 -30.8027343,164.225487 -31.8886069,164.225487 C-32.9744796,164.225487 -33.8949613,164.668566 -34.6500796,165.554738 C-35.4051979,166.44091 -35.7827514,167.592292 -35.7827514,169.008919 C-35.7827514,170.425546 -35.4582426,171.564447 -34.8092153,172.425657 C-34.160188,173.286866 -33.2865105,173.717464 -32.1881565,173.717464 C-31.2895033,173.717464 -30.5655991,173.417918 -30.0164221,172.818816 C-29.4672451,172.219713 -29.1926608,171.333555 -29.1926608,170.160313 L-29.1926608,170.122869 L-32.1507128,170.010538 L-32.1507128,169.037002 L-27.7510784,169.037002 L-27.7510784,174.859497 L-28.9492767,174.859497 L-29.1364952,172.837537 Z M-19.0054415,167.164817 C-20.4158278,167.164817 -21.1459726,168.275636 -21.1958978,170.497306 L-21.1958978,174.859497 L-22.6749238,174.859497 L-22.6749238,165.891732 L-21.1958978,165.891732 L-21.1958978,167.614142 C-20.7465712,166.366012 -19.9540208,165.741957 -18.818223,165.741957 C-18.4562655,165.741957 -18.113035,165.798122 -17.7885214,165.910453 L-17.8634087,167.352036 C-18.2378476,167.227223 -18.6185214,167.164817 -19.0054415,167.164817 L-19.0054415,167.164817 Z M-8.2940105,169.055724 C-8.2940105,168.24444 -8.46250546,167.664068 -8.79950041,167.314592 C-9.13649537,166.965116 -9.62637884,166.79038 -10.2691655,166.79038 C-10.9119522,166.79038 -11.4299182,166.918312 -11.823079,167.174178 C-12.2162397,167.430045 -12.4128172,167.83256 -12.4128172,168.381737 L-14.041618,168.381737 C-14.041618,167.008795 -13.3052327,166.16008 -11.8324399,165.835566 C-11.3831133,165.735716 -10.8963501,165.685791 -10.3721357,165.685791 C-9.26130046,165.685791 -8.39386348,165.966616 -7.76979874,166.528274 C-7.145734,167.089933 -6.83370632,167.944889 -6.83370632,169.093168 L-6.83370632,174.859497 L-8.10679202,174.859497 L-8.25656681,173.361749 C-8.80574378,174.497547 -9.79799183,175.065437 -11.2333407,175.065437 C-12.1944004,175.065437 -12.9651088,174.797094 -13.545489,174.260398 C-14.1258692,173.723702 -14.416055,173.055963 -14.416055,172.25716 C-14.416055,171.458357 -14.0946665,170.834302 -13.4518798,170.384975 C-12.8090931,169.935649 -12.0071819,169.710989 -11.0461222,169.710989 C-10.0850625,169.710989 -9.16770114,169.873243 -8.2940105,170.197757 L-8.2940105,169.055724 Z M-8.2940105,171.133849 C-9.18018243,170.884223 -9.9540111,170.759412 -10.6155197,170.759412 C-11.2770283,170.759412 -11.813716,170.877983 -12.2255987,171.115127 C-12.6374814,171.352272 -12.8434197,171.726705 -12.8434197,172.238438 C-12.8434197,173.361755 -12.2068832,173.923405 -10.9337911,173.923405 C-10.2098761,173.923405 -9.58894095,173.664422 -9.07096722,173.146448 C-8.55299348,172.628474 -8.2940105,171.957615 -8.2940105,171.133849 L-8.2940105,171.133849 Z M-0.241081994,167.632864 C0.345538861,166.334809 1.35026802,165.685791 2.77313562,165.685791 C3.83404568,165.685791 4.66091906,166.035262 5.25378056,166.734215 C5.84664206,167.433167 6.14306836,168.387972 6.14306836,169.598658 L6.14306836,174.859497 L4.68276418,174.859497 L4.68276418,169.598658 C4.68276418,168.737448 4.47994618,168.088431 4.0743041,167.651585 C3.66866202,167.21474 3.09141079,166.996321 2.34253311,166.996321 C1.59365542,166.996321 0.988321704,167.302108 0.526513797,167.913691 C0.0647058904,168.525275 -0.178675707,169.37399 -0.203638297,170.459863 L-0.203638297,174.859497 L-1.68266433,174.859497 L-1.68266433,165.910453 L-0.409578631,165.910453 L-0.241081994,167.632864 Z M17.1727708,167.239705 L17.1727708,162.109918 L18.633075,162.109918 L18.633075,174.859497 L17.4348767,174.859497 L17.2476582,173.361749 C16.9605884,173.923407 16.5799146,174.347765 16.1056254,174.634835 C15.6313362,174.921905 15.1133703,175.065437 14.551712,175.065437 C13.4159142,175.065437 12.4642297,174.628599 11.6966301,173.754908 C10.9290305,172.881217 10.5452364,171.742316 10.5452364,170.338171 C10.5452364,168.934025 10.9227899,167.807605 11.6779082,166.958877 C12.4330266,166.110149 13.3878313,165.685791 14.5423511,165.685791 C15.6968708,165.685791 16.5736686,166.203757 17.1727708,167.239705 L17.1727708,167.239705 Z M12.8012192,167.913691 C12.308208,168.525275 12.0617061,169.342787 12.0617061,170.366253 C12.0617061,171.38972 12.3113283,172.210352 12.8105801,172.828177 C13.3098319,173.446001 13.908925,173.754908 14.6078775,173.754908 C15.30683,173.754908 15.9028029,173.520887 16.3958141,173.052839 C16.8888252,172.58479 17.1478082,171.957614 17.1727708,171.171293 L17.1727708,169.710989 C17.1727708,168.874742 16.9293892,168.213243 16.4426187,167.726473 C15.9558482,167.239702 15.3505145,166.996321 14.6265994,166.996321 C13.9026843,166.996321 13.2942303,167.302108 12.8012192,167.913691 L12.8012192,167.913691 Z M30.7418173,166.341056 C31.3721227,165.904211 32.2239583,165.685791 33.2973497,165.685791 C34.370741,165.685791 35.2100955,165.910451 35.8154383,166.359778 C36.4207811,166.809104 36.7359291,167.376995 36.7608916,168.063466 L35.3193093,168.063466 C35.2069777,167.252182 34.5205167,166.846546 33.259906,166.846546 C32.6483225,166.846546 32.1771607,166.983838 31.8464064,167.258427 C31.5156521,167.533015 31.3502774,167.829441 31.3502774,168.147714 C31.3502774,168.465987 31.4750885,168.734331 31.7247144,168.952754 C31.9743403,169.171177 32.3737357,169.361513 32.9229127,169.52377 L34.7202102,170.122869 C35.4815691,170.360014 36.0650609,170.662681 36.470703,171.030879 C36.8763451,171.399077 37.0791631,171.904562 37.0791631,172.547349 C37.0791631,173.190135 36.7484137,173.770507 36.0869051,174.288481 C35.4253965,174.806454 34.5017945,175.065437 33.3160715,175.065437 C32.1303485,175.065437 31.2067465,174.800214 30.5452379,174.269759 C29.8837293,173.739304 29.5342583,173.055963 29.4968144,172.219716 L30.9196749,172.219716 C30.9446375,172.781375 31.1724177,173.202612 31.6030224,173.483441 C32.033627,173.76427 32.5734349,173.904683 33.2224623,173.904683 C33.8714896,173.904683 34.4081772,173.767391 34.8325412,173.492802 C35.2569053,173.218214 35.4690841,172.890585 35.4690841,172.509905 C35.4690841,172.129226 35.344273,171.83904 35.0946471,171.639339 C34.8450212,171.439638 34.4393852,171.264903 33.877727,171.115127 L32.1365951,170.53475 C30.5764332,170.072942 29.796364,169.26167 29.796364,168.10091 C29.796364,167.364513 30.1115119,166.777901 30.7418173,166.341056 L30.7418173,166.341056 Z M46.4800647,174.597391 C45.4066733,175.096643 44.4269064,175.202732 43.5407345,174.915663 C42.9041884,174.715962 42.4548685,174.297845 42.1927614,173.661299 C42.0554671,173.349266 41.986821,172.974833 41.986821,172.537988 L41.986821,167.033764 L40.5452387,167.033764 L40.5452387,165.910453 L41.986821,165.910453 L41.986821,163.420448 L43.4471252,163.420448 L43.4471252,165.910453 L46.2554025,165.910453 L46.2554025,167.033764 L43.4471252,167.033764 L43.4471252,172.519266 C43.4471252,173.430401 43.8714829,173.885961 44.7202109,173.885961 C45.1820188,173.885961 45.6999848,173.773631 46.2741243,173.548968 L46.4800647,174.597391 Z M49.5061768,174.719083 C49.3002355,174.513142 49.1972663,174.26352 49.1972663,173.970209 C49.1972663,173.676899 49.3002355,173.427277 49.5061768,173.221335 C49.7121182,173.015394 49.9742215,172.912425 50.2924945,172.912425 C50.6107675,172.912425 50.875991,173.015394 51.0881731,173.221335 C51.3003551,173.427277 51.4064445,173.676899 51.4064445,173.970209 C51.4064445,174.26352 51.3003551,174.513142 51.0881731,174.719083 C50.875991,174.925025 50.6107675,175.027994 50.2924945,175.027994 C49.9742215,175.027994 49.7121182,174.925025 49.5061768,174.719083 L49.5061768,174.719083 Z" id="Grand-st." fill="#FFFFFF" transform="translate(7.315718, 168.591393) rotate(-90.000000) translate(-7.315718, -168.591393) "></path>
                <path d="M521.989037,161.000121 L521.989037,166.186073 L527.774088,166.186073 L527.774088,161.000121 L529.253114,161.000121 L529.253114,172.776164 L527.774088,172.776164 L527.774088,167.459159 L521.989037,167.459159 L521.989037,172.776164 L520.510011,172.776164 L520.510011,161.000121 L521.989037,161.000121 Z M537.811533,171.783906 C539.047181,171.783906 539.752363,171.240978 539.927102,170.155105 L541.443571,170.155105 C541.306277,171.053758 540.910002,171.74958 540.254734,172.242591 C539.599466,172.735602 538.785074,172.982104 537.811533,172.982104 C536.613328,172.982104 535.639802,172.554626 534.890924,171.699657 C534.142047,170.844689 533.767613,169.705788 533.767613,168.28292 C533.767613,166.860052 534.145167,165.724272 534.900285,164.875544 C535.655404,164.026816 536.660133,163.602458 537.914503,163.602458 C539.168873,163.602458 540.104956,164.089221 540.72278,165.062762 C541.340604,166.036303 541.555903,167.222008 541.368684,168.619913 L535.246639,168.619913 C535.246639,169.543529 535.471299,170.301756 535.920626,170.894618 C536.369953,171.487479 537.000249,171.783906 537.811533,171.783906 L537.811533,171.783906 Z M538.8974,165.006597 C538.61033,164.856821 538.260859,164.781934 537.848976,164.781934 C537.087617,164.781934 536.485404,165.040917 536.042318,165.558891 C535.599232,166.076865 535.340249,166.722762 535.265361,167.496602 L540.039433,167.496602 C540.039433,166.248473 539.658759,165.418479 538.8974,165.006597 L538.8974,165.006597 Z M546.529087,164.257723 C547.159392,163.820877 548.011228,163.602458 549.084619,163.602458 C550.158011,163.602458 550.997365,163.827118 551.602708,164.276444 C552.208051,164.725771 552.523199,165.293661 552.548161,165.980133 L551.106579,165.980133 C550.994247,165.168849 550.307786,164.763213 549.047175,164.763213 C548.435592,164.763213 547.96443,164.900505 547.633676,165.175093 C547.302922,165.449682 547.137547,165.746108 547.137547,166.064381 C547.137547,166.382654 547.262358,166.650998 547.511984,166.869421 C547.76161,167.087843 548.161005,167.27818 548.710182,167.440437 L550.50748,168.039536 C551.268839,168.276681 551.85233,168.579348 552.257972,168.947546 C552.663615,169.315744 552.866433,169.821229 552.866433,170.464015 C552.866433,171.106802 552.535683,171.687174 551.874175,172.205147 C551.212666,172.723121 550.289064,172.982104 549.103341,172.982104 C547.917618,172.982104 546.994016,172.716881 546.332507,172.186426 C545.670999,171.65597 545.321528,170.97263 545.284084,170.136383 L546.706944,170.136383 C546.731907,170.698041 546.959687,171.119279 547.390292,171.400108 C547.820897,171.680937 548.360704,171.821349 549.009732,171.821349 C549.658759,171.821349 550.195447,171.684057 550.619811,171.409469 C551.044175,171.13488 551.256354,170.807251 551.256354,170.426572 C551.256354,170.045892 551.131543,169.755707 550.881917,169.556006 C550.632291,169.356305 550.226655,169.18157 549.664996,169.031794 L547.923865,168.451417 C546.363703,167.989609 545.583633,167.178337 545.583633,166.017576 C545.583633,165.28118 545.898781,164.694568 546.529087,164.257723 L546.529087,164.257723 Z M562.267334,172.514058 C561.193943,173.01331 560.214176,173.119399 559.328004,172.832329 C558.691458,172.632629 558.242138,172.214511 557.980031,171.577965 C557.842737,171.265933 557.774091,170.8915 557.774091,170.454655 L557.774091,164.950431 L556.332508,164.950431 L556.332508,163.82712 L557.774091,163.82712 L557.774091,161.337114 L559.234395,161.337114 L559.234395,163.82712 L562.042672,163.82712 L562.042672,164.950431 L559.234395,164.950431 L559.234395,170.435933 C559.234395,171.347067 559.658752,171.802628 560.50748,171.802628 C560.969288,171.802628 561.487254,171.690298 562.061394,171.465634 L562.267334,172.514058 Z M569.402892,171.783906 C570.63854,171.783906 571.343723,171.240978 571.518461,170.155105 L573.034931,170.155105 C572.897636,171.053758 572.501361,171.74958 571.846093,172.242591 C571.190825,172.735602 570.376433,172.982104 569.402892,172.982104 C568.204688,172.982104 567.231161,172.554626 566.482284,171.699657 C565.733406,170.844689 565.358973,169.705788 565.358973,168.28292 C565.358973,166.860052 565.736526,165.724272 566.491645,164.875544 C567.246763,164.026816 568.251492,163.602458 569.505862,163.602458 C570.760232,163.602458 571.696315,164.089221 572.31414,165.062762 C572.931964,166.036303 573.147263,167.222008 572.960043,168.619913 L566.837999,168.619913 C566.837999,169.543529 567.062659,170.301756 567.511985,170.894618 C567.961312,171.487479 568.591608,171.783906 569.402892,171.783906 L569.402892,171.783906 Z M570.488759,165.006597 C570.20169,164.856821 569.852219,164.781934 569.440336,164.781934 C568.678977,164.781934 568.076763,165.040917 567.633677,165.558891 C567.190591,166.076865 566.931608,166.722762 566.856721,167.496602 L571.630792,167.496602 C571.630792,166.248473 571.250118,165.418479 570.488759,165.006597 L570.488759,165.006597 Z M581.2938,165.081484 C579.883413,165.081484 579.153268,166.192303 579.103343,168.413973 L579.103343,172.776164 L577.624317,172.776164 L577.624317,163.808398 L579.103343,163.808398 L579.103343,165.530808 C579.55267,164.282679 580.34522,163.658623 581.481018,163.658623 C581.842976,163.658623 582.186206,163.714788 582.51072,163.82712 L582.435832,165.268702 C582.061393,165.14389 581.68072,165.081484 581.2938,165.081484 L581.2938,165.081484 Z M593.08427,164.257723 C593.714576,163.820877 594.566411,163.602458 595.639803,163.602458 C596.713194,163.602458 597.552549,163.827118 598.157891,164.276444 C598.763234,164.725771 599.078382,165.293661 599.103345,165.980133 L597.661762,165.980133 C597.549431,165.168849 596.86297,164.763213 595.602359,164.763213 C594.990776,164.763213 594.519614,164.900505 594.18886,165.175093 C593.858105,165.449682 593.692731,165.746108 593.692731,166.064381 C593.692731,166.382654 593.817542,166.650998 594.067168,166.869421 C594.316793,167.087843 594.716189,167.27818 595.265366,167.440437 L597.062663,168.039536 C597.824022,168.276681 598.407514,168.579348 598.813156,168.947546 C599.218798,169.315744 599.421616,169.821229 599.421616,170.464015 C599.421616,171.106802 599.090867,171.687174 598.429358,172.205147 C597.76785,172.723121 596.844248,172.982104 595.658525,172.982104 C594.472802,172.982104 593.5492,172.716881 592.887691,172.186426 C592.226182,171.65597 591.876711,170.97263 591.839268,170.136383 L593.262128,170.136383 C593.287091,170.698041 593.514871,171.119279 593.945476,171.400108 C594.37608,171.680937 594.915888,171.821349 595.564915,171.821349 C596.213943,171.821349 596.75063,171.684057 597.174994,171.409469 C597.599358,171.13488 597.811537,170.807251 597.811537,170.426572 C597.811537,170.045892 597.686726,169.755707 597.4371,169.556006 C597.187474,169.356305 596.781838,169.18157 596.22018,169.031794 L594.479048,168.451417 C592.918886,167.989609 592.138817,167.178337 592.138817,166.017576 C592.138817,165.28118 592.453965,164.694568 593.08427,164.257723 L593.08427,164.257723 Z M608.822518,172.514058 C607.749126,173.01331 606.76936,173.119399 605.883188,172.832329 C605.246642,172.632629 604.797322,172.214511 604.535215,171.577965 C604.39792,171.265933 604.329274,170.8915 604.329274,170.454655 L604.329274,164.950431 L602.887692,164.950431 L602.887692,163.82712 L604.329274,163.82712 L604.329274,161.337114 L605.789578,161.337114 L605.789578,163.82712 L608.597856,163.82712 L608.597856,164.950431 L605.789578,164.950431 L605.789578,170.435933 C605.789578,171.347067 606.213936,171.802628 607.062664,171.802628 C607.524472,171.802628 608.042438,171.690298 608.616577,171.465634 L608.822518,172.514058 Z M611.84863,172.63575 C611.642689,172.429809 611.539719,172.180186 611.539719,171.886876 C611.539719,171.593566 611.642689,171.343943 611.84863,171.138002 C612.054571,170.932061 612.316675,170.829091 612.634948,170.829091 C612.953221,170.829091 613.218444,170.932061 613.430626,171.138002 C613.642808,171.343943 613.748898,171.593566 613.748898,171.886876 C613.748898,172.180186 613.642808,172.429809 613.430626,172.63575 C613.218444,172.841691 612.953221,172.94466 612.634948,172.94466 C612.316675,172.94466 612.054571,172.841691 611.84863,172.63575 L611.84863,172.63575 Z" id="Hester-st." fill="#FFFFFF" transform="translate(567.419643, 166.994828) rotate(-270.000000) translate(-567.419643, -166.994828) "></path>
                <path d="M240.952941,43.4329945 C241.789188,43.3206629 242.519333,43.0023946 243.143397,42.4781802 L244.341596,42.4781802 L244.341596,54.2916667 L242.881291,54.2916667 L242.881291,44.238034 C242.257227,44.6374354 241.61445,44.8558548 240.952941,44.8932987 L240.952941,43.4329945 Z M248.837373,43.4329945 C249.67362,43.3206629 250.403764,43.0023946 251.027829,42.4781802 L252.226027,42.4781802 L252.226027,54.2916667 L250.765723,54.2916667 L250.765723,44.238034 C250.141659,44.6374354 249.498881,44.8558548 248.837373,44.8932987 L248.837373,43.4329945 Z M264.753478,43.8823189 C265.577243,44.9307476 265.98912,46.4378414 265.98912,48.4036453 C265.98912,50.3694492 265.577243,51.876543 264.753478,52.9249717 C263.929712,53.9734005 262.806413,54.497607 261.383545,54.497607 C259.960677,54.497607 258.834257,53.979641 258.004251,52.9436936 C257.174245,51.9077461 256.759248,50.3944118 256.759248,48.4036453 C256.759248,46.4128788 257.174245,44.8995445 258.004251,43.863597 C258.834257,42.8276496 259.960677,42.3096836 261.383545,42.3096836 C262.806413,42.3096836 263.929712,42.8338901 264.753478,43.8823189 L264.753478,43.8823189 Z M263.667611,44.8839378 C263.143396,44.066413 262.378928,43.6576567 261.374184,43.6576567 C260.36944,43.6576567 259.604972,44.066413 259.080758,44.8839378 C258.556543,45.7014626 258.29444,46.8746867 258.29444,48.4036453 C258.29444,49.9326039 258.556543,51.105828 259.080758,51.9233528 C259.604972,52.7408776 260.36944,53.1496339 261.374184,53.1496339 C262.378928,53.1496339 263.143396,52.7408776 263.667611,51.9233528 C264.191825,51.105828 264.453928,49.9326039 264.453928,48.4036453 C264.453928,46.8746867 264.191825,45.7014626 263.667611,44.8839378 L263.667611,44.8839378 Z M276.646919,42.5156239 L281.046553,42.5156239 C282.282201,42.5156239 283.233886,42.80893 283.901635,43.3955508 C284.569384,43.9821717 284.903254,44.718557 284.903254,45.6047289 C284.903254,46.2787189 284.719158,46.8653309 284.35096,47.3645827 C283.982761,47.8638345 283.424232,48.2008244 282.675354,48.3755625 C283.41175,48.5003755 284.001483,48.8186437 284.444569,49.3303768 C284.887655,49.8421099 285.109194,50.4224814 285.109194,51.0715087 C285.109194,52.5193389 284.404012,53.4991059 282.993626,54.0108389 C282.469411,54.1980584 281.826634,54.2916667 281.065275,54.2916667 L276.646919,54.2916667 L276.646919,42.5156239 Z M281.027831,52.9998591 C281.926485,52.9998591 282.569262,52.8188831 282.956182,52.4569255 C283.343102,52.094968 283.536559,51.6144453 283.536559,51.0153432 C283.536559,50.416241 283.32438,49.9388387 282.900016,49.5831218 C282.475652,49.2274049 281.851597,49.0495491 281.027831,49.0495491 L278.125945,49.0495491 L278.125945,52.9998591 L281.027831,52.9998591 Z M278.125945,47.7764634 L281.00911,47.7764634 C281.733025,47.7764634 282.310276,47.5986076 282.740881,47.2428907 C283.171485,46.8871738 283.386784,46.3972903 283.386784,45.7732256 C283.386784,45.1491608 283.177726,44.6623976 282.759602,44.3129214 C282.341479,43.9634451 281.757987,43.7887096 281.00911,43.7887096 L278.125945,43.7887096 L278.125945,47.7764634 Z M293.199567,45.1179609 C294.447696,45.1179609 295.455546,45.5235969 296.223145,46.334881 C296.990745,47.1461652 297.374539,48.3069082 297.374539,49.8171449 C297.374539,51.3149002 296.990745,52.4694027 296.223145,53.2806868 C295.455546,54.091971 294.447696,54.497607 293.199567,54.497607 C291.951437,54.497607 290.943588,54.091971 290.175988,53.2806868 C289.408388,52.4694027 289.024594,51.3149002 289.024594,49.8171449 C289.024594,48.3069082 289.408388,47.1461652 290.175988,46.334881 C290.943588,45.5235969 291.951437,45.1179609 293.199567,45.1179609 L293.199567,45.1179609 Z M295.202804,47.2990562 C294.753478,46.6937134 294.095099,46.3910466 293.227649,46.3910466 C292.360199,46.3910466 291.69558,46.6937134 291.233772,47.2990562 C290.771965,47.904399 290.541064,48.7406332 290.541064,49.8077839 C290.541064,50.8749346 290.759483,51.7111688 291.196329,52.3165116 C291.633174,52.9218544 292.285312,53.2245213 293.152762,53.2245213 C294.020212,53.2245213 294.691071,52.9218544 295.165361,52.3165116 C295.63965,51.7111688 295.876791,50.8749346 295.876791,49.8077839 C295.876791,48.7406332 295.652131,47.904399 295.202804,47.2990562 L295.202804,47.2990562 Z M301.870316,45.3426231 L304.042051,52.4756474 L306.176341,45.7732256 L307.411983,45.7732256 L309.527552,52.5505348 L311.718008,45.3426231 L313.178313,45.3426231 L310.257704,54.2916667 L308.816122,54.2916667 L306.756719,48.0198474 L304.734759,54.2916667 L303.311898,54.2916667 L300.335125,45.3426231 L301.870316,45.3426231 Z M320.238983,53.2994087 C321.474631,53.2994087 322.179814,52.7564805 322.354552,51.6706079 L323.871022,51.6706079 C323.733728,52.5692611 323.337452,53.2650828 322.682184,53.758094 C322.026916,54.2511051 321.212524,54.497607 320.238983,54.497607 C319.040779,54.497607 318.067252,54.0701291 317.318375,53.2151604 C316.569497,52.3601917 316.195064,51.2212906 316.195064,49.798423 C316.195064,48.3755554 316.572617,47.2397746 317.327736,46.3910466 C318.082854,45.5423185 319.087583,45.1179609 320.341953,45.1179609 C321.596323,45.1179609 322.532407,45.6047241 323.150231,46.5782651 C323.768055,47.5518061 323.983354,48.7375113 323.796134,50.1354163 L317.67409,50.1354163 C317.67409,51.0590321 317.89875,51.8172594 318.348076,52.4101209 C318.797403,53.0029824 319.427699,53.2994087 320.238983,53.2994087 L320.238983,53.2994087 Z M321.32485,46.5220995 C321.037781,46.372324 320.68831,46.2974373 320.276427,46.2974373 C319.515068,46.2974373 318.912854,46.5564203 318.469768,47.074394 C318.026683,47.5923678 317.7677,48.2382651 317.692812,49.0121054 L322.466883,49.0121054 C322.466883,47.7639759 322.086209,46.9339822 321.32485,46.5220995 L321.32485,46.5220995 Z M332.129891,46.5969869 C330.719504,46.5969869 329.98936,47.7078055 329.939434,49.929476 L329.939434,54.2916667 L328.460408,54.2916667 L328.460408,45.3239012 L329.939434,45.3239012 L329.939434,47.0463113 C330.388761,45.7981818 331.181311,45.1741264 332.317109,45.1741264 C332.679067,45.1741264 333.022297,45.2302914 333.346811,45.3426231 L333.271923,46.7842054 C332.897485,46.6593924 332.516811,46.5969869 332.129891,46.5969869 L332.129891,46.5969869 Z M335.502357,56.8940036 C336.11394,57.3682928 336.756717,57.6054339 337.430707,57.6054339 C337.929959,57.6054339 338.360557,57.3558117 338.722515,56.8565599 C338.984622,56.4946024 339.221763,55.9454336 339.433945,55.2090372 L339.696051,54.2916667 L336.026569,45.3426231 L337.674091,45.3426231 L340.388759,52.4756474 L342.504328,45.3426231 L344.002076,45.3426231 L340.650865,56.0702423 C340.363796,56.9813768 339.986242,57.6803188 339.518194,58.1670893 C339.050145,58.6538598 338.457292,58.8972414 337.739618,58.8972414 C337.021943,58.8972414 336.276197,58.678822 335.502357,58.2419767 L335.502357,56.8940036 Z" id="The-Bowery" fill="#FFFFFF" transform="translate(292.711532, 50.603463) rotate(-360.000000) translate(-292.711532, -50.603463) "></path>
                <path d="M32,0.512915726 L32,274.605465" id="Line" stroke="#FFFFFF" stroke-width="2" stroke-linecap="square"></path>
                <path d="M543,0.488906726 L543,272.395833" id="Line" stroke="#FFFFFF" stroke-width="2" stroke-linecap="square"></path>
                <path d="M542.000012,74 L33.2212266,74" id="Line" stroke="#FFFFFF" stroke-width="2" stroke-linecap="square"></path>
                <path d="M283.567638,79.125 C286.642559,79.125 289.135275,76.6345839 289.135275,73.5625 C289.135275,70.4904161 286.642559,68 283.567638,68 C280.492716,68 278,70.4904161 278,73.5625 C278,76.6345839 280.492716,79.125 283.567638,79.125 Z" id="Oval-7" fill="#27DD95"></path>
                <path d="M245.339123,162.222346 C246.319598,162.222346 247.108335,162.467462 247.705357,162.957699 C248.302379,163.447937 248.712522,164.086207 248.935798,164.872528 L247.698076,165.120073 C247.503923,164.54732 247.200562,164.093493 246.787986,163.758578 C246.37541,163.423663 245.892461,163.256209 245.339123,163.256209 C244.572217,163.256209 243.936374,163.576557 243.431575,164.217263 C242.926776,164.85797 242.67438,165.748636 242.67438,166.889287 C242.67438,168.029939 242.90008,168.944873 243.351487,169.634118 C243.802894,170.323363 244.465433,170.66798 245.339123,170.66798 C246.067199,170.66798 246.64237,170.476257 247.064654,170.092804 C247.486937,169.70935 247.698076,169.202132 247.698076,168.571133 L248.935798,168.571133 C248.935798,169.532193 248.608169,170.294234 247.952901,170.857279 C247.297633,171.420324 246.399687,171.701842 245.259035,171.701842 C244.118384,171.701842 243.196169,171.265004 242.492362,170.391313 C241.788556,169.517622 241.436658,168.347865 241.436658,166.882007 C241.436658,165.416148 241.80069,164.273086 242.528766,163.452788 C243.256841,162.63249 244.193618,162.222346 245.339123,162.222346 L245.339123,162.222346 Z M253.524578,165.862706 C253.990546,164.891939 254.762295,164.406562 255.839847,164.406562 C256.664999,164.406562 257.308123,164.678373 257.769237,165.222003 C258.230352,165.765632 258.460905,166.508258 258.460905,167.449903 L258.460905,171.541667 L257.325113,171.541667 L257.325113,167.449903 C257.325113,166.780073 257.167366,166.275282 256.851866,165.935513 C256.536367,165.595745 256.08254,165.425863 255.490372,165.425863 C254.898204,165.425863 254.422535,165.675832 254.063351,166.175777 C253.704167,166.675722 253.524578,167.367383 253.524578,168.250782 L253.524578,171.541667 L252.374224,171.541667 L252.374224,161.625328 L253.524578,161.625328 L253.524578,165.862706 Z M262.525473,164.566738 L263.675827,164.566738 L263.675827,171.541667 L262.525473,171.541667 L262.525473,164.566738 Z M262.547315,162.739278 C262.416262,162.608224 262.350736,162.433488 262.350736,162.215066 C262.350736,161.996643 262.416262,161.821908 262.547315,161.690854 C262.678369,161.5598 262.860385,161.494275 263.093369,161.494275 C263.326353,161.494275 263.513223,161.5598 263.653985,161.690854 C263.794746,161.821908 263.865125,161.996643 263.865125,162.215066 C263.865125,162.433488 263.794746,162.608224 263.653985,162.739278 C263.513223,162.870331 263.326353,162.935857 263.093369,162.935857 C262.860385,162.935857 262.678369,162.870331 262.547315,162.739278 L262.547315,162.739278 Z M269.196538,165.920952 C269.652799,164.911354 270.434255,164.406562 271.54093,164.406562 C272.366082,164.406562 273.009206,164.678373 273.47032,165.222003 C273.931435,165.765632 274.161989,166.508258 274.161989,167.449903 L274.161989,171.541667 L273.026196,171.541667 L273.026196,167.449903 C273.026196,166.780073 272.868449,166.275282 272.55295,165.935513 C272.23745,165.595745 271.788477,165.425863 271.206017,165.425863 C270.623556,165.425863 270.152741,165.663697 269.793557,166.139373 C269.434373,166.615049 269.245077,167.275161 269.225661,168.119729 L269.225661,171.541667 L268.075308,171.541667 L268.075308,164.581299 L269.065485,164.581299 L269.196538,165.920952 Z M282.463935,167.027621 C282.463935,166.396622 282.332883,165.945222 282.070776,165.673407 C281.808669,165.401592 281.427648,165.265687 280.927703,165.265687 C280.427758,165.265687 280.024895,165.365189 279.719104,165.564196 C279.413312,165.763204 279.260418,166.076272 279.260418,166.503409 L277.993573,166.503409 C277.993573,165.435565 278.566318,164.775453 279.711823,164.523054 C280.061299,164.445392 280.439893,164.406562 280.847615,164.406562 C281.711598,164.406562 282.386271,164.624982 282.871655,165.061827 C283.357039,165.498672 283.599727,166.163638 283.599727,167.056744 L283.599727,171.541667 L282.609549,171.541667 L282.493058,170.376752 C282.06592,171.26015 281.294172,171.701842 280.177789,171.701842 C279.430298,171.701842 278.830858,171.493131 278.379451,171.075701 C277.928045,170.658271 277.702345,170.138918 277.702345,169.517627 C277.702345,168.896336 277.952313,168.410959 278.452259,168.061483 C278.952204,167.712007 279.575913,167.537271 280.323403,167.537271 C281.070894,167.537271 281.784398,167.663469 282.463935,167.915869 L282.463935,167.027621 Z M282.463935,168.643941 C281.77469,168.449787 281.172823,168.352712 280.658316,168.352712 C280.14381,168.352712 279.726386,168.444933 279.406033,168.629379 C279.08568,168.813825 278.925505,169.105051 278.925505,169.503065 C278.925505,170.376756 279.420589,170.813595 280.410772,170.813595 C280.973817,170.813595 281.456767,170.612164 281.859635,170.209295 C282.262504,169.806427 282.463935,169.284647 282.463935,168.643941 L282.463935,168.643941 Z M291.231847,171.337807 C290.396987,171.726113 289.634946,171.808627 288.945701,171.585351 C288.45061,171.430028 288.101139,171.104826 287.897278,170.609735 C287.790493,170.367043 287.737102,170.075817 287.737102,169.736048 L287.737102,165.454986 L286.615871,165.454986 L286.615871,164.581299 L287.737102,164.581299 L287.737102,162.644628 L288.872894,162.644628 L288.872894,164.581299 L291.05711,164.581299 L291.05711,165.454986 L288.872894,165.454986 L288.872894,169.721487 C288.872894,170.430147 289.20295,170.784472 289.863072,170.784472 C290.222256,170.784472 290.625118,170.697104 291.071671,170.522366 L291.231847,171.337807 Z M296.854489,164.406562 C297.825256,164.406562 298.609139,164.722057 299.206161,165.353056 C299.803183,165.984054 300.101689,166.886855 300.101689,168.061483 C300.101689,169.226404 299.803183,170.12435 299.206161,170.755349 C298.609139,171.386348 297.825256,171.701842 296.854489,171.701842 C295.883721,171.701842 295.099838,171.386348 294.502816,170.755349 C293.905794,170.12435 293.607288,169.226404 293.607288,168.061483 C293.607288,166.886855 293.905794,165.984054 294.502816,165.353056 C295.099838,164.722057 295.883721,164.406562 296.854489,164.406562 L296.854489,164.406562 Z M298.412562,166.10297 C298.063086,165.632147 297.551014,165.39674 296.876331,165.39674 C296.201647,165.39674 295.684722,165.632147 295.325538,166.10297 C294.966354,166.573792 294.786764,167.224196 294.786764,168.054202 C294.786764,168.884208 294.956646,169.534613 295.296415,170.005435 C295.636183,170.476257 296.143402,170.711665 296.818085,170.711665 C297.492768,170.711665 298.014548,170.476257 298.38344,170.005435 C298.752331,169.534613 298.936774,168.884208 298.936774,168.054202 C298.936774,167.224196 298.762039,166.573792 298.412562,166.10297 L298.412562,166.10297 Z M303.569238,164.581299 L305.258365,170.129207 L306.918369,164.916212 L307.879424,164.916212 L309.524866,170.187453 L311.228554,164.581299 L312.364346,164.581299 L310.092762,171.541667 L308.971531,171.541667 L307.369773,166.663585 L305.797138,171.541667 L304.690469,171.541667 L302.3752,164.581299 L303.569238,164.581299 Z M316.530844,165.920952 C316.987105,164.911354 317.768561,164.406562 318.875236,164.406562 C319.700388,164.406562 320.343512,164.678373 320.804626,165.222003 C321.265741,165.765632 321.496295,166.508258 321.496295,167.449903 L321.496295,171.541667 L320.360502,171.541667 L320.360502,167.449903 C320.360502,166.780073 320.202755,166.275282 319.887256,165.935513 C319.571756,165.595745 319.122783,165.425863 318.540323,165.425863 C317.957862,165.425863 317.487047,165.663697 317.127863,166.139373 C316.768679,166.615049 316.579383,167.275161 316.559967,168.119729 L316.559967,171.541667 L315.409614,171.541667 L315.409614,164.581299 L316.399791,164.581299 L316.530844,165.920952 Z" id="Chinatown" fill="#FFFFFF"></path>
                <path d="M266.218724,141.645254 L266.218724,142.781046 L262.884155,142.781046 L262.884155,146.916495 L263.874333,146.916495 L263.874333,146.334037 L270.062944,146.334037 L270.062944,146.87281 L271.053122,146.87281 L271.053122,142.781046 L267.223463,142.781046 L267.223463,141.645254 L270.776454,141.645254 L270.776454,139.723144 L272.334528,139.723144 L272.334528,138.805774 L270.776454,138.805774 L270.776454,136.883664 L267.194341,136.883664 L267.194341,136.213838 L266.247847,136.213838 L266.247847,136.883664 L262.884155,136.883664 L262.884155,137.75735 L266.247847,137.75735 L266.247847,138.805774 L261.690117,138.805774 L261.690117,135.660503 L271.955931,135.660503 L271.955931,134.670326 L267.048726,134.670326 C266.88855,134.20436 266.728375,133.796639 266.553637,133.432603 L265.432407,133.607341 C265.621705,133.927692 265.796443,134.291728 265.956618,134.670326 L260.656255,134.670326 L260.656255,139.27174 C260.612571,142.096659 260.117482,144.295436 259.18555,145.882633 L259.971867,146.596143 C261.020291,144.848771 261.588187,142.562625 261.675556,139.723144 L266.247847,139.723144 L266.247847,140.771568 L262.753102,140.771568 L262.753102,141.645254 L266.218724,141.645254 Z M263.874333,145.431228 L263.874333,143.683856 L270.062944,143.683856 L270.062944,145.431228 L263.874333,145.431228 Z M267.194341,140.771568 L267.194341,139.723144 L269.757154,139.723144 L269.757154,140.771568 L267.194341,140.771568 Z M269.757154,138.805774 L267.194341,138.805774 L267.194341,137.75735 L269.757154,137.75735 L269.757154,138.805774 Z M282.238232,133.549095 L281.175248,133.549095 C281.175248,134.10243 281.160686,134.874186 281.146125,135.864363 C281.015072,140.058058 278.947348,143.392627 274.942952,145.85351 L275.583655,146.785442 C278.816295,144.703156 280.884019,142.082097 281.757705,138.907704 C282.791567,142.198589 284.801046,144.819648 287.771579,146.77088 L288.455966,145.85351 C285.063151,143.771224 282.951743,140.742445 282.136302,136.781734 C282.194548,135.878925 282.238232,134.801379 282.238232,133.549095 L282.238232,133.549095 Z M294.850364,135.63138 L294.850364,136.563313 L296.83072,136.563313 L296.83072,138.529107 L294.559135,138.529107 L294.559135,139.461039 L300.223535,139.461039 L300.223535,138.86402 L301.883539,138.86402 L301.883539,145.183684 C301.883539,145.64965 301.723363,145.882633 301.403011,145.882633 C300.893361,145.882633 300.354588,145.85351 299.801253,145.809825 L300.019675,146.785442 L301.737924,146.785442 C302.509681,146.785442 302.902839,146.334037 302.902839,145.431228 L302.902839,138.86402 L304.286176,138.86402 L304.286176,137.902965 L300.165289,137.902965 L300.165289,138.529107 L297.835459,138.529107 L297.835459,136.563313 L299.859499,136.563313 L299.859499,135.63138 L297.835459,135.63138 L297.835459,133.709271 L296.83072,133.709271 L296.83072,135.63138 L294.850364,135.63138 Z M294.762996,141.455956 L294.762996,142.387888 L296.816158,142.387888 L296.816158,144.615788 C295.986156,144.746841 295.141593,144.863332 294.282468,144.950701 L294.530013,145.95544 C296.612298,145.664211 298.548969,145.314737 300.354588,144.877893 L300.354588,143.945961 C299.524586,144.120699 298.680022,144.295436 297.820898,144.44105 L297.820898,142.387888 L299.932306,142.387888 L299.932306,141.455956 L297.820898,141.455956 L297.820898,140.014373 L296.816158,140.014373 L296.816158,141.455956 L294.762996,141.455956 Z M293.379659,133.418042 C292.840886,134.845063 291.9672,136.097346 290.7586,137.204016 L291.06439,138.194194 C292.549657,136.927348 293.612642,135.471205 294.282468,133.825762 L293.379659,133.418042 Z M293.758256,137.204016 C293.146676,138.718405 292.200183,140.058058 290.889653,141.237534 L291.195443,142.198589 C291.646848,141.819992 292.06913,141.412271 292.447727,140.98999 L292.447727,146.829126 L293.39422,146.829126 L293.39422,139.825075 C293.889309,139.126126 294.282468,138.383492 294.60282,137.597175 L293.758256,137.204016 Z M300.412833,134.51015 L300.412833,135.456643 L304.02407,135.456643 L304.02407,134.51015 L300.412833,134.51015 Z" id="唐人街" fill="#FFFFFF"></path>
            </g>
        </g>
    </g>
</svg>